<svg width="909" height="116" viewBox="0 0 909 116" fill="none" xmlns="http://www.w3.org/2000/svg">
<path d="M104.85 97.2C93.9 108.6 81.9 115.8 62.25 115.8C31.65 115.8 8.85 91.95 8.85 61.65C8.85 31.65 31.2 7.2 63 7.2C82.35 7.2 94.05 13.95 104.1 23.55L92.25 37.2C83.85 29.4 74.85 24.15 62.85 24.15C42.75 24.15 28.2 40.65 28.2 61.35C28.2 82.05 42.75 98.85 62.85 98.85C75.75 98.85 84 93.6 93 85.2L104.85 97.2ZM271.463 61.35C271.463 91.05 248.663 115.8 216.413 115.8C184.163 115.8 161.663 91.35 161.663 61.65C161.663 31.95 184.463 7.2 216.713 7.2C248.963 7.2 271.463 31.65 271.463 61.35ZM252.113 61.65C252.113 41.1 237.263 24.15 216.413 24.15C195.563 24.15 181.013 40.8 181.013 61.35C181.013 81.9 195.863 98.85 216.713 98.85C237.562 98.85 252.113 82.2 252.113 61.65ZM353.621 36.45C353.621 44.7 358.421 48.3 378.521 53.1C400.721 58.5 412.271 66.45 412.271 84C412.271 103.8 396.821 115.5 374.771 115.5C358.721 115.5 343.571 109.95 330.971 98.7L342.071 85.5C352.121 94.2 362.171 99.15 375.221 99.15C386.621 99.15 393.821 93.9 393.821 85.8C393.821 78.15 389.621 74.1 370.121 69.6C347.771 64.2 335.171 57.6 335.171 38.1C335.171 19.8 350.171 7.49999 371.021 7.49999C386.321 7.49999 398.471 12.15 409.121 20.7L399.221 34.65C389.771 27.6 380.321 23.85 370.721 23.85C359.921 23.85 353.621 29.4 353.621 36.45ZM563.719 38.7L530.569 88.2H529.969L497.119 39V114H478.969V8.99999H498.619L530.569 58.65L562.519 8.99999H582.169V114H563.719V38.7ZM759.343 61.35C759.343 91.05 736.543 115.8 704.293 115.8C672.043 115.8 649.543 91.35 649.543 61.65C649.543 31.95 672.343 7.2 704.593 7.2C736.843 7.2 759.343 31.65 759.343 61.35ZM739.993 61.65C739.993 41.1 725.143 24.15 704.293 24.15C683.443 24.15 668.893 40.8 668.893 61.35C668.893 81.9 683.743 98.85 704.593 98.85C725.443 98.85 739.993 82.2 739.993 61.65ZM841.502 36.45C841.502 44.7 846.302 48.3 866.402 53.1C888.602 58.5 900.152 66.45 900.152 84C900.152 103.8 884.702 115.5 862.652 115.5C846.602 115.5 831.452 109.95 818.852 98.7L829.952 85.5C840.002 94.2 850.052 99.15 863.102 99.15C874.502 99.15 881.702 93.9 881.702 85.8C881.702 78.15 877.502 74.1 858.002 69.6C835.652 64.2 823.052 57.6 823.052 38.1C823.052 19.8 838.052 7.49999 858.902 7.49999C874.202 7.49999 886.352 12.15 897.002 20.7L887.102 34.65C877.652 27.6 868.202 23.85 858.602 23.85C847.802 23.85 841.502 29.4 841.502 36.45Z" fill="white"/>
<path d="M166.621 37.3037C163.02 44.5684 161 52.7395 161 61.3636C161 91.5381 185.681 116 216.127 116C224.835 116 233.085 113.995 240.418 110.422C245.765 112.688 250.948 114.175 255.675 114.556C261.198 115.003 266.967 113.976 271.143 109.837C275.75 105.271 276.538 98.8138 275.713 92.7662C274.962 87.2485 272.775 81.1171 269.577 74.7896C270.674 70.4885 271.255 65.9895 271.255 61.3636C271.255 31.1886 246.574 6.72708 216.127 6.72708C211.465 6.72708 206.932 7.30191 202.597 8.38638C196.204 5.2091 190.01 3.03523 184.436 2.28623C178.328 1.46553 171.805 2.24343 167.194 6.81371C163.013 10.957 161.98 16.6812 162.434 22.1617C162.822 26.8523 164.327 31.9971 166.621 37.3037ZM175.225 24.7321C174.925 23.4419 174.733 22.2516 174.643 21.1685C174.349 17.6093 175.194 16.0555 175.856 15.399C176.586 14.676 178.445 13.7337 182.79 14.3176C183.999 14.4801 185.314 14.7527 186.726 15.1387C182.461 17.8086 178.592 21.0417 175.225 24.7321ZM262.755 90.5218C263.139 91.9096 263.411 93.2021 263.573 94.3913C264.159 98.6906 263.209 100.529 262.481 101.252C261.819 101.907 260.254 102.745 256.67 102.455C255.586 102.367 254.395 102.179 253.104 101.886C256.816 98.5582 260.068 94.7355 262.755 90.5218ZM239.901 96.7346C229.631 91.4033 217.702 82.6275 206.175 71.2036C194.661 59.7919 185.813 47.9821 180.432 37.8117C185.89 29.7034 194.084 23.5627 203.689 20.6825C207.618 19.5042 211.793 18.8685 216.127 18.8685C239.808 18.8685 259.004 37.8942 259.004 61.3636C259.004 65.6641 258.362 69.8049 257.17 73.7029C254.264 83.2133 248.074 91.3268 239.901 96.7346ZM225.96 102.737C222.805 103.471 219.513 103.859 216.127 103.859C192.447 103.859 173.251 84.833 173.251 61.3636C173.251 58.0114 173.641 54.7526 174.379 51.6286C180.287 60.8361 188.164 70.5237 197.512 79.7888C206.872 89.0649 216.659 96.8791 225.96 102.737Z" fill="white"/>
</svg>
