<svg width="115" height="114" viewBox="0 0 115 114" fill="none" xmlns="http://www.w3.org/2000/svg">
<path d="M5.62067 35.3037C2.02036 42.5684 0 50.7395 0 59.3636C0 89.5381 24.6814 114 55.1274 114C63.8351 114 72.0846 111.995 79.4184 108.422C84.7645 110.688 89.9484 112.175 94.6746 112.556C100.198 113.003 105.967 111.976 110.143 107.837C114.75 103.271 115.538 96.8138 114.713 90.7662C113.962 85.2485 111.775 79.1171 108.577 72.7896C109.674 68.4885 110.255 63.9895 110.255 59.3636C110.255 29.1886 85.5737 4.72708 55.1274 4.72708C50.4655 4.72708 45.9316 5.30191 41.5969 6.38638C35.2044 3.2091 29.0096 1.03523 23.4359 0.28623C17.3282 -0.534469 10.8053 0.243432 6.19393 4.81371C2.01338 8.95703 0.980105 14.6812 1.43393 20.1617C1.82239 24.8523 3.32682 29.9971 5.62067 35.3037ZM14.2253 22.7321C13.9252 21.4419 13.7331 20.2516 13.6434 19.1685C13.3487 15.6093 14.1939 14.0555 14.8564 13.399C15.5859 12.676 17.4446 11.7337 21.79 12.3176C22.9993 12.4801 24.3143 12.7527 25.7261 13.1387C21.4607 15.8086 17.592 19.0417 14.2253 22.7321ZM101.755 88.5218C102.139 89.9096 102.411 91.2021 102.573 92.3913C103.159 96.6906 102.209 98.5294 101.481 99.2518C100.819 99.9075 99.2539 100.745 95.67 100.455C94.5858 100.367 93.395 100.179 92.1044 99.8862C95.8158 96.5582 99.0677 92.7355 101.755 88.5218ZM78.9008 94.7346C68.6312 89.4033 56.7022 80.6275 45.1751 69.2036C33.6608 57.7919 24.813 45.9821 19.4319 35.8117C24.8905 27.7034 33.084 21.5627 42.689 18.6825C46.6182 17.5042 50.7926 16.8685 55.1274 16.8685C78.8077 16.8685 98.0043 35.8942 98.0043 59.3636C98.0043 63.6641 97.3618 67.8049 96.1704 71.7029C93.264 81.2133 87.0738 89.3268 78.9008 94.7346ZM64.9597 100.737C61.8046 101.471 58.5135 101.859 55.1274 101.859C31.4472 101.859 12.2505 82.833 12.2505 59.3636C12.2505 56.0114 12.6411 52.7526 13.3794 49.6286C19.2874 58.8361 27.164 68.5237 36.5125 77.7888C45.8721 87.0649 55.6591 94.8791 64.9597 100.737Z" fill="white"/>
</svg>
