<svg width="639" height="116" viewBox="0 0 639 116" fill="none" xmlns="http://www.w3.org/2000/svg">
<path d="M118.65 61.35C118.65 91.05 95.85 115.8 63.6 115.8C31.35 115.8 8.85 91.35 8.85 61.65C8.85 31.95 31.65 7.2 63.9 7.2C96.15 7.2 118.65 31.65 118.65 61.35ZM99.3 61.65C99.3 41.1 84.45 24.15 63.6 24.15C42.75 24.15 28.2 40.8 28.2 61.35C28.2 81.9 43.05 98.85 63.9 98.85C84.75 98.85 99.3 82.2 99.3 61.65ZM267.541 114H245.791L219.991 77.4H196.891V114H178.441V8.99999H225.241C249.391 8.99999 264.241 21.75 264.241 42.3C264.241 59.7 253.891 70.2 239.191 74.25L267.541 114ZM245.491 43.35C245.491 31.8 237.391 25.8 223.741 25.8H196.891V61.05H223.891C237.091 61.05 245.491 54.15 245.491 43.35ZM371.44 8.99999C392.59 8.99999 405.94 19.35 405.94 35.85C405.94 48.75 398.74 55.35 390.94 59.4C403.24 63.6 411.79 70.65 411.79 85.05C411.79 103.95 396.34 114 372.94 114H324.34V8.99999H371.44ZM367.69 53.25C379.54 53.25 387.49 48.6 387.49 38.85C387.49 30.3 380.89 25.35 369.04 25.35H342.49V53.25H367.69ZM373.09 97.65C385.69 97.65 393.34 92.7 393.34 83.1C393.34 74.1 386.29 68.85 371.74 68.85H342.49V97.65H373.09ZM471.142 8.99999H489.592V114H471.142V8.99999ZM599.599 26.1V114H580.999V26.1H547.699V8.99999H632.899V26.1H599.599Z" fill="white"/>
<path d="M14.6207 37.3037C11.0204 44.5684 9 52.7395 9 61.3636C9 91.5381 33.6814 116 64.1274 116C72.8351 116 81.0846 113.995 88.4184 110.422C93.7645 112.688 98.9484 114.175 103.675 114.556C109.198 115.003 114.967 113.976 119.143 109.837C123.75 105.271 124.538 98.8138 123.713 92.7662C122.962 87.2485 120.775 81.1171 117.577 74.7896C118.674 70.4885 119.255 65.9895 119.255 61.3636C119.255 31.1886 94.5737 6.72708 64.1274 6.72708C59.4655 6.72708 54.9316 7.30191 50.5969 8.38638C44.2044 5.2091 38.0096 3.03523 32.4359 2.28623C26.3282 1.46553 19.8053 2.24343 15.1939 6.81371C11.0134 10.957 9.9801 16.6812 10.4339 22.1617C10.8224 26.8523 12.3268 31.9971 14.6207 37.3037ZM23.2253 24.7321C22.9252 23.4419 22.7331 22.2516 22.6434 21.1685C22.3487 17.6093 23.1939 16.0555 23.8564 15.399C24.5859 14.676 26.4446 13.7337 30.79 14.3176C31.9993 14.4801 33.3143 14.7527 34.7261 15.1387C30.4607 17.8086 26.592 21.0417 23.2253 24.7321ZM110.755 90.5218C111.139 91.9096 111.411 93.2021 111.573 94.3913C112.159 98.6906 111.209 100.529 110.481 101.252C109.819 101.907 108.254 102.745 104.67 102.455C103.586 102.367 102.395 102.179 101.104 101.886C104.816 98.5582 108.068 94.7355 110.755 90.5218ZM87.9008 96.7346C77.6312 91.4033 65.7022 82.6275 54.1751 71.2036C42.6608 59.7919 33.813 47.9821 28.4319 37.8117C33.8905 29.7034 42.084 23.5627 51.689 20.6825C55.6182 19.5042 59.7926 18.8685 64.1274 18.8685C87.8077 18.8685 107.004 37.8942 107.004 61.3636C107.004 65.6641 106.362 69.8049 105.17 73.7029C102.264 83.2133 96.0738 91.3268 87.9008 96.7346ZM73.9597 102.737C70.8046 103.471 67.5135 103.859 64.1274 103.859C40.4472 103.859 21.2505 84.833 21.2505 61.3636C21.2505 58.0114 21.6411 54.7526 22.3794 51.6286C28.2874 60.8361 36.164 70.5237 45.5125 79.7888C54.8721 89.0649 64.6591 96.8791 73.9597 102.737Z" fill="white"/>
</svg>
